<?xml version="1.0" encoding="UTF-8" standalone="no"?>
<svg width="375px" height="667px" viewBox="0 0 375 667" version="1.1" xmlns="http://www.w3.org/2000/svg" xmlns:xlink="http://www.w3.org/1999/xlink" xmlns:sketch="http://www.bohemiancoding.com/sketch/ns">
    <!-- Generator: Sketch 3.4.4 (17249) - http://www.bohemiancoding.com/sketch -->
    <title>View post</title>
    <desc>Created with Sketch.</desc>
    <defs>
        <filter x="-50%" y="-50%" width="200%" height="200%" filterUnits="objectBoundingBox" id="filter-1">
            <feOffset dx="0" dy="0.25" in="SourceAlpha" result="shadowOffsetOuter1"></feOffset>
            <feGaussianBlur stdDeviation="0.5" in="shadowOffsetOuter1" result="shadowBlurOuter1"></feGaussianBlur>
            <feColorMatrix values="0 0 0 0 0   0 0 0 0 0   0 0 0 0 0  0 0 0 0.35 0" in="shadowBlurOuter1" type="matrix" result="shadowMatrixOuter1"></feColorMatrix>
            <feMerge>
                <feMergeNode in="shadowMatrixOuter1"></feMergeNode>
                <feMergeNode in="SourceGraphic"></feMergeNode>
            </feMerge>
        </filter>
        <filter x="-50%" y="-50%" width="200%" height="200%" filterUnits="objectBoundingBox" id="filter-2">
            <feOffset dx="0" dy="0.5" in="SourceAlpha" result="shadowOffsetInner1"></feOffset>
            <feGaussianBlur stdDeviation="0" in="shadowOffsetInner1" result="shadowBlurInner1"></feGaussianBlur>
            <feComposite in="shadowBlurInner1" in2="SourceAlpha" operator="arithmetic" k2="-1" k3="1" result="shadowInnerInner1"></feComposite>
            <feColorMatrix values="0 0 0 0 0.698039216   0 0 0 0 0.698039216   0 0 0 0 0.698039216  0 0 0 0.7 0" in="shadowInnerInner1" type="matrix" result="shadowMatrixInner1"></feColorMatrix>
            <feMerge>
                <feMergeNode in="SourceGraphic"></feMergeNode>
                <feMergeNode in="shadowMatrixInner1"></feMergeNode>
            </feMerge>
        </filter>
        <filter x="-50%" y="-50%" width="200%" height="200%" filterUnits="objectBoundingBox" id="filter-3">
            <feOffset dx="0" dy="0.4" in="SourceAlpha" result="shadowOffsetOuter1"></feOffset>
            <feGaussianBlur stdDeviation="0" in="shadowOffsetOuter1" result="shadowBlurOuter1"></feGaussianBlur>
            <feColorMatrix values="0 0 0 0 0   0 0 0 0 0   0 0 0 0 0  0 0 0 0.35 0" in="shadowBlurOuter1" type="matrix" result="shadowMatrixOuter1"></feColorMatrix>
            <feMerge>
                <feMergeNode in="shadowMatrixOuter1"></feMergeNode>
                <feMergeNode in="SourceGraphic"></feMergeNode>
            </feMerge>
        </filter>
    </defs>
    <g id="Page-1" stroke="none" stroke-width="1" fill="none" fill-rule="evenodd" sketch:type="MSPage">
        <rect id="Rectangle-111" fill="#FFFFFF" sketch:type="MSShapeGroup" x="0" y="64" width="375" height="554"></rect>
        <g id="View-post" sketch:type="MSArtboardGroup">
            <g id="Details" sketch:type="MSLayerGroup" transform="translate(0.000000, 181.000000)">
                <rect id="Rectangle-76" fill="#FFFFFF" filter="url(#filter-1)" sketch:type="MSShapeGroup" x="0" y="0" width="375" height="156"></rect>
                <g id="Date" transform="translate(21.000000, 24.000000)">
                    <text id="12-am,-Monday,-Janua" sketch:type="MSTextLayer" font-family="SFNS Display" font-size="17" font-weight="normal" sketch:alignment="right" letter-spacing="-0.427083313" fill="#555555">
                        <tspan x="29.7776687" y="16.9454545">12 am, Monday, January 11, 2016</tspan>
                    </text>
                    <path d="M9.15590551,3.30287679 L14.0574803,6.04291752 C14.1019685,6.06815681 14.1511811,6.08077646 14.2011811,6.08077646 C14.2511811,6.08077646 14.3019685,6.06776245 14.3476378,6.04173443 C14.4370079,5.99086148 14.4933071,5.89581976 14.496063,5.79249641 C14.5326772,4.32901179 13.9074803,3.09346953 12.8240157,2.4877265 C11.7511811,1.88750457 10.3464567,2.00936303 9.13818898,2.79690784 C9.0515748,2.85369625 9.0007874,2.95149851 9.00472441,3.05482186 C9.00826772,3.15853958 9.06574803,3.2523982 9.15590551,3.30287679 L9.15590551,3.30287679 Z M12.5362205,3.00394891 C13.3007874,3.43143944 13.7858268,4.25842064 13.8870079,5.27114727 L9.9007874,3.04220222 C10.8055118,2.60130332 11.7775591,2.5796133 12.5362205,3.00394891 L12.5362205,3.00394891 Z M0.650787402,6.04173443 C0.696456693,6.06776245 0.746850394,6.08077646 0.797637795,6.08077646 C0.847244094,6.08077646 0.896456693,6.06815681 0.940944882,6.04291752 L5.84173228,3.30287679 C5.93228346,3.2523982 5.98937008,3.15853958 5.99330709,3.05482186 C5.99645669,2.95149851 5.94566929,2.85369625 5.85866142,2.79690784 C4.6515748,2.00896867 3.2488189,1.88711021 2.17322835,2.4877265 C1.09055118,3.09346953 0.466141732,4.32901179 0.502362205,5.79249641 C0.504724409,5.89581976 0.561417323,5.99086148 0.650787402,6.04173443 L0.650787402,6.04173443 Z M2.46141732,3.00434328 C2.82874016,2.79927402 3.23740157,2.69516194 3.67559055,2.69516194 C4.14488189,2.69516194 4.62834646,2.81425985 5.09685039,3.04220222 L1.11141732,5.27114727 C1.21220472,4.258815 1.69724409,3.43143944 2.46141732,3.00434328 L2.46141732,3.00434328 Z M11.7720472,17.8016674 C13.719685,16.4438724 15,14.1877162 15,11.6353927 C15,7.49338813 11.6358268,4.12354817 7.5003937,4.12354817 C3.36417323,4.12354817 0,7.49338813 0,11.6353927 C0,14.1877162 1.27952756,16.4430836 3.22834646,17.8016674 L1.98070866,19.6472907 C1.88937008,19.7821632 1.92480315,19.9663312 2.05944882,20.058218 C2.11062992,20.0921333 2.16771654,20.1090909 2.22519685,20.1090909 C2.32007874,20.1090909 2.41299213,20.0633447 2.46968504,19.9785564 L3.72795276,18.117553 C4.83818898,18.7678591 6.12440945,19.1472372 7.5003937,19.1472372 C8.87637795,19.1472372 10.1625984,18.7678591 11.2720472,18.117553 L12.530315,19.9785564 C12.5870079,20.0633447 12.6799213,20.1090909 12.7748031,20.1090909 C12.8314961,20.1090909 12.8897638,20.0921333 12.9401575,20.058218 C13.0751969,19.9663312 13.1106299,19.7821632 13.0192913,19.6472907 L11.7720472,17.8016674 L11.7720472,17.8016674 Z M7.75590551,18.5426773 L7.75590551,17.4573877 C7.75590551,17.294121 7.62362205,17.1616147 7.46062992,17.1616147 C7.2976378,17.1616147 7.16535433,17.294121 7.16535433,17.4573877 L7.16535433,18.5387337 C3.60354331,18.3663966 0.746850394,15.486751 0.604724409,11.9118418 L1.74566929,11.9118418 C1.90866142,11.9118418 2.04094488,11.7793355 2.04094488,11.6160689 C2.04094488,11.4528022 1.90866142,11.3202959 1.74566929,11.3202959 L0.606299213,11.3202959 C0.767322835,7.76352743 3.61574803,4.90438879 7.16535433,4.73205175 L7.16535433,5.90686195 C7.16535433,6.07012863 7.2976378,6.20263492 7.46062992,6.20263492 C7.62362205,6.20263492 7.75590551,6.07012863 7.75590551,5.90686195 L7.75590551,4.73007993 C7.75590551,4.7292912 7.75511811,4.72889683 7.75511811,4.72810811 C11.3409449,4.86022003 14.2311024,7.73631632 14.3937008,11.3202959 L13.2775591,11.3202959 C13.1141732,11.3202959 12.9822835,11.4528022 12.9822835,11.6160689 C12.9822835,11.7793355 13.1141732,11.9118418 13.2775591,11.9118418 L14.3956693,11.9118418 C14.2519685,15.5135678 11.3543307,18.410171 7.75590551,18.5426773 L7.75590551,18.5426773 Z M10.3641732,9.2976032 L7.57047244,11.227226 L5.11377953,7.80099201 C5.01889764,7.66848572 4.83464567,7.63890843 4.7015748,7.73355577 C4.56889764,7.82899185 4.53858268,8.01355418 4.63346457,8.14606047 L7.25984252,11.8081241 C7.27992126,11.836124 7.30748031,11.8538703 7.33503937,11.8724054 C7.34606299,11.8798984 7.35354331,11.892518 7.36574803,11.8988278 C7.40748031,11.9201235 7.45314961,11.9311657 7.4996063,11.9311657 C7.52913386,11.9311657 7.55905512,11.9264333 7.58740157,11.9177573 C7.59606299,11.9149967 7.60393701,11.9090813 7.61220472,11.9059264 C7.63110236,11.8980391 7.6496063,11.8913349 7.66732283,11.8791096 L10.6992126,9.78503704 C10.8330709,9.69196715 10.8669291,9.50779919 10.7748031,9.37332108 C10.6814961,9.23884297 10.4988189,9.20492767 10.3641732,9.2976032 L10.3641732,9.2976032 Z" id="Fill-160" fill="#5B5B58" sketch:type="MSShapeGroup"></path>
                </g>
                <path d="M29.4995345,60 C25.3643163,60 22,63.6170939 22,68.0637453 C22,75.1168456 28.9585997,82.0433244 29.2551362,82.3347402 C29.3231022,82.4013097 29.4110856,82.4348271 29.4995345,82.4348271 C29.5870523,82.4348271 29.6745702,82.4022407 29.7425362,82.3366023 C30.0390727,82.0503072 37,75.2346223 37,68.0637453 C37,63.6170939 33.6352182,60 29.4995345,60 L29.4995345,60 Z M29.5013966,81.5871144 C28.260319,80.2827261 22.6982807,74.0992179 22.6982807,68.0637453 C22.6982807,64.0020793 25.7493017,60.6982807 29.4995345,60.6982807 C33.2502328,60.6982807 36.3017193,64.0020793 36.3017193,68.0637453 C36.3017193,74.1979083 30.7461982,80.2976227 29.5013966,81.5871144 L29.5013966,81.5871144 Z M29.4995345,62.6809323 C26.7580845,62.6809323 24.5277761,64.9117063 24.5277761,67.6536217 C24.5277761,70.3955372 26.7580845,72.6263112 29.4995345,72.6263112 C32.2414499,72.6263112 34.4717584,70.3955372 34.4717584,67.6536217 C34.4717584,64.9117063 32.2414499,62.6809323 29.4995345,62.6809323 L29.4995345,62.6809323 Z M29.4995345,71.9280305 C27.14307,71.9280305 25.2260567,70.0105518 25.2260567,67.6536217 C25.2260567,65.2971572 27.14307,63.379213 29.4995345,63.379213 C31.855999,63.379213 33.7734777,65.2971572 33.7734777,67.6536217 C33.7734777,70.0105518 31.855999,71.9280305 29.4995345,71.9280305 L29.4995345,71.9280305 Z" id="Fill-63" fill="#5B5B58" sketch:type="MSShapeGroup"></path>
            </g>
            <g id="Buttons" sketch:type="MSLayerGroup" transform="translate(26.000000, 358.000000)">
                <g id="Cell-Elements/Button">
                    <rect id="Button-Background" stroke="#F2742B" sketch:type="MSShapeGroup" x="0" y="0" width="127" height="30" rx="4"></rect>
                    <text id="BUTTON" sketch:type="MSTextLayer" font-family="SFNS Display" font-size="14" font-weight="normal" sketch:alignment="middle" letter-spacing="-0.150000006" fill="#F2742B">
                        <tspan x="26.2830078" y="19">Watch Event</tspan>
                    </text>
                </g>
                <g transform="translate(137.000000, 0.000000)">
                    <path d="M3.99279704,0 C1.78763613,0 0,1.78679466 0,3.9992748 L0,26.0007252 C0,28.2094637 1.78517813,30 4.00811675,30 L141.0953,30 L145.993336,30 C148.206155,30 150,28.2132053 150,26.0007252 L150,3.9992748 C150,1.79053632 148.210933,0 146.007203,0 L3.99279704,0 Z" id="Button-Background" stroke="#F2742B" sketch:type="MSShapeGroup"></path>
                    <text id="BUTTON" sketch:type="MSTextLayer" font-family="SFNS Display" font-size="14" font-weight="normal" sketch:alignment="middle" letter-spacing="-0.150000006">
                        <tspan x="37.1470703" y="19" fill="#F2742B">Attend</tspan>
                        <tspan x="76.3876953" y="19" fill="#FF9600"> </tspan>
                        <tspan x="79.5873047" y="19" fill="#F2742B">Event</tspan>
                    </text>
                </g>
            </g>
            <g id="Banner" sketch:type="MSLayerGroup" transform="translate(18.000000, 95.000000)" font-weight="normal" font-family="SFNS Display" fill="#0D0000">
                <text id="by-DesignWorks-NU" sketch:type="MSTextLayer" font-size="16" letter-spacing="-0.385882348">
                    <tspan x="19" y="52">by DesignWorks NU</tspan>
                </text>
                <text id="DesignWorks-Info-Ses" sketch:type="MSTextLayer" font-size="27" letter-spacing="0.0500000007">
                    <tspan x="0" y="26">DesignWorks Info Sessio</tspan>
                    <tspan x="288.025" y="26">n</tspan>
                </text>
            </g>
            <g id="Top-Bar" sketch:type="MSLayerGroup">
                <rect id="Rectangle-1" fill="#F2742B" sketch:type="MSShapeGroup" x="0" y="0" width="375" height="64"></rect>
                <g id="Status-Bar/White/100%" fill="#FFFFFF">
                    <path d="M9.25,13 C10.7687831,13 12,11.7687831 12,10.25 C12,8.73121694 10.7687831,7.5 9.25,7.5 C7.73121694,7.5 6.5,8.73121694 6.5,10.25 C6.5,11.7687831 7.73121694,13 9.25,13 Z M16.25,13 C17.7687831,13 19,11.7687831 19,10.25 C19,8.73121694 17.7687831,7.5 16.25,7.5 C14.7312169,7.5 13.5,8.73121694 13.5,10.25 C13.5,11.7687831 14.7312169,13 16.25,13 Z M23.25,13 C24.7687831,13 26,11.7687831 26,10.25 C26,8.73121694 24.7687831,7.5 23.25,7.5 C21.7312169,7.5 20.5,8.73121694 20.5,10.25 C20.5,11.7687831 21.7312169,13 23.25,13 Z M30.25,13 C31.7687831,13 33,11.7687831 33,10.25 C33,8.73121694 31.7687831,7.5 30.25,7.5 C28.7312169,7.5 27.5,8.73121694 27.5,10.25 C27.5,11.7687831 28.7312169,13 30.25,13 Z M37.25,13 C38.7687831,13 40,11.7687831 40,10.25 C40,8.73121694 38.7687831,7.5 37.25,7.5 C35.7312169,7.5 34.5,8.73121694 34.5,10.25 C34.5,11.7687831 35.7312169,13 37.25,13 Z" id="Mobile-Signal" sketch:type="MSShapeGroup"></path>
                    <text id="Carrier" sketch:type="MSTextLayer" font-family="SFNS Display" font-size="12" font-weight="normal">
                        <tspan x="45" y="14">Hear Ye</tspan>
                    </text>
                    <path d="M100.144421,12.4385043 C99.626374,11.8454456 98.8523616,11.4689119 97.987563,11.4689119 C97.1390073,11.4689119 96.3778594,11.8314341 95.8601652,12.4053177 L98.0225391,14.5 L100.144421,12.4385043 Z M102.323496,10.3214425 C101.244779,9.19174563 99.7014387,8.48445596 97.987563,8.48445596 C96.2882723,8.48445596 94.7566264,9.17975893 93.6792698,10.2926936 L94.7692987,11.3486 C95.567205,10.5053708 96.713648,9.97668394 97.987563,9.97668394 C99.2768836,9.97668394 100.435631,10.518235 101.234622,11.3793293 L102.323496,10.3214425 L102.323496,10.3214425 Z M104.5,8.20687933 C102.862958,6.53943672 100.55057,5.5 97.987563,5.5 C95.4375103,5.5 93.1355496,6.52895605 91.5,8.18164431 L92.5895579,9.23709441 C93.9460798,7.85431655 95.8628921,6.99222798 97.987563,6.99222798 C100.126003,6.99222798 102.053881,7.86552609 103.41187,9.26404272 L104.5,8.20687933 Z" id="Wi-Fi" sketch:type="MSShapeGroup"></path>
                    <text id="9:41-AM" sketch:type="MSTextLayer" font-family="SFNS Display" font-size="12" font-weight="normal" sketch:alignment="middle">
                        <tspan x="165.887695" y="15.5">9:41 AM</tspan>
                    </text>
                    <text id="100%" sketch:type="MSTextLayer" font-family="SFNS Display" font-size="12" font-weight="normal" sketch:alignment="right">
                        <tspan x="313.289062" y="15">100%</tspan>
                    </text>
                    <path d="M346.493713,5.5 C345.668758,5.5 345,6.16802155 345,7.00530324 L345,13.4946968 C345,14.3260528 345.67338,15 346.493713,15 L366.006287,15 C366.831242,15 367.5,14.3319784 367.5,13.4946968 L367.5,7.00530324 C367.5,6.17394722 366.82662,5.5 366.006287,5.5 L346.493713,5.5 Z M368,8.5 L368,12 L368.75,12 C369.164214,12 369.5,11.6644053 369.5,11.25774 L369.5,9.24225998 C369.5,8.83232111 369.167101,8.5 368.75,8.5 L368,8.5 Z M346.508152,6 C345.951365,6 345.5,6.45699692 345.5,7.00844055 L345.5,13.4915594 C345.5,14.0485058 345.949058,14.5 346.508152,14.5 L365.991848,14.5 C366.548635,14.5 367,14.0430031 367,13.4915594 L367,7.00844055 C367,6.45149422 366.550942,6 365.991848,6 L346.508152,6 Z M346.506744,6.5 C346.226877,6.5 346,6.71637201 346,6.99209595 L346,13.5079041 C346,13.7796811 346.230225,14 346.506744,14 L365.993256,14 C366.273123,14 366.5,13.783628 366.5,13.5079041 L366.5,6.99209595 C366.5,6.72031886 366.269775,6.5 365.993256,6.5 L346.506744,6.5 Z" id="Battery" sketch:type="MSShapeGroup"></path>
                </g>
                <text id="Back" sketch:type="MSTextLayer" font-family="SFNS Display" font-size="17" font-weight="normal" sketch:alignment="right" letter-spacing="-0.427083313" fill="#FFFFFF">
                    <tspan x="9.15169263" y="46">Back</tspan>
                </text>
            </g>
            <g id="Comment-Section" sketch:type="MSLayerGroup" transform="translate(24.000000, 407.000000)" font-weight="normal">
                <g id="Comments-Title" font-family="SFNS Display" letter-spacing="-0.150000006" sketch:type="MSTextLayer" font-size="14" sketch:alignment="middle">
                    <text id="Hide-comments" fill="#F2742B">
                        <tspan x="98.0140625" y="14">Hide comments</tspan>
                    </text>
                    <text id="12-comments" fill="#555555">
                        <tspan x="0.377734408" y="14">12 comments</tspan>
                    </text>
                </g>
                <g id="Comment" transform="translate(14.000000, 37.000000)" sketch:type="MSTextLayer">
                    <text id="I’m-going-to-apply-r" font-family="Arial" font-size="12" fill="#8F8E94">
                        <tspan x="0" y="11">I’m going to apply right now!</tspan>
                    </text>
                    <text id="2-hrs-ago" font-family="SFNS Display" font-size="11" letter-spacing="-0.265294105" fill="#9B9B9B">
                        <tspan x="0" y="32">2 hrs ago</tspan>
                    </text>
                </g>
                <g id="Comment" transform="translate(14.000000, 88.000000)" sketch:type="MSTextLayer">
                    <text id="I-had-a-question:-Wh" font-family="Arial" font-size="12" fill="#8F8E94">
                        <tspan x="0" y="11">I had a question: When exactly is the deadline for this? </tspan>
                        <tspan x="0" y="25">The fliers and emails say different dates…?</tspan>
                        <tspan x="0" y="39">Thanks!</tspan>
                    </text>
                    <text id="3-hrs-ago" font-family="SFNS Display" font-size="11" letter-spacing="-0.265294105" fill="#9B9B9B">
                        <tspan x="0" y="63">3 hrs ago</tspan>
                    </text>
                </g>
            </g>
            <text id="We-are-looking-for-d" sketch:type="MSTextLayer" font-family="SFNS Display" font-size="14" font-weight="normal" line-spacing="18" letter-spacing="0.27125001" fill="#000000">
                <tspan x="25" y="293">We are looking for designers and developers for </tspan>
                <tspan x="25" y="311">this upcoming quarter. Apply now!</tspan>
            </text>
            <g id="Bottom-bar" sketch:type="MSLayerGroup" transform="translate(0.000000, 618.000000)">
                <g id="Bottom-Bar/Tab-Bar" filter="url(#filter-2)" fill="#FAFAFA" sketch:type="MSShapeGroup" fill-opacity="0.9">
                    <rect id="Bar" x="0" y="0" width="375" height="49"></rect>
                </g>
                <g id="Profile" transform="translate(223.000000, 6.000000)">
                    <path d="M20.65,21.7016667 C19.9708333,21.16625 19.0375,20.8333333 17.8625,20.8333333 L16.9041667,20.8333333 L15.7458333,19.3391667 C17.0583333,18.25875 17.9833333,16.3816667 18.05,14.7008333 C19.2791667,13.38875 18.4583333,10.0295833 18.2416667,9.23041667 C18.525,8.34916667 18.3875,7.38 17.8583333,6.6125 C16.8333333,5.13291667 14.6916667,4.88625 12.5916667,6.145 C9.29166667,6.1775 8.78333333,7.59 8.77083333,9.13708333 C8.59166667,9.60916667 7.82083333,11.9779167 8.9375,14.6058333 C8.97083333,16.3216667 9.91666667,18.265 11.2708333,19.3616667 L10.15,20.8333333 L9.1875,20.8333333 C8.00416667,20.8333333 7.05833333,21.1779167 6.36666667,21.7125 C3.61666667,19.5775 1.84166667,16.2429167 1.84166667,12.5 C1.84166667,6.07083333 7.07083333,0.840416667 13.5,0.840416667 C19.9291667,0.840416667 25.1583333,6.07083333 25.1583333,12.5 C25.1583333,16.2370833 23.3916667,19.56625 20.65,21.7016667 L20.65,21.7016667 Z M17.3958333,9.33291667 C17.8333333,10.8416667 18.2083333,13.49375 17.3625,14.19375 C17.2666667,14.2733333 17.2125,14.3925 17.2125,14.5170833 C17.2125,16.66875 15.4625,19.3983333 13.4958333,19.3983333 C11.5291667,19.3983333 9.77916667,16.66875 9.77916667,14.5170833 C9.77916667,14.45875 9.76666667,14.40125 9.74166667,14.3483333 C8.6125,11.7795833 9.56666667,9.40125 9.57916667,9.3775 C9.59583333,9.32666667 9.60833333,9.27166667 9.60833333,9.21666667 C9.60833333,7.95208333 9.8375,6.98458333 12.7125,6.98458333 C12.7916667,6.98458333 12.8666667,6.9625 12.9333333,6.92125 C13.7583333,6.40916667 14.5416667,6.15 15.2625,6.15 C16.0708333,6.15 16.7458333,6.48416667 17.1666667,7.09041667 C17.5666667,7.66958333 17.6541667,8.40916667 17.4083333,9.06833333 C17.375,9.1525 17.3708333,9.24583333 17.3958333,9.33291667 L17.3958333,9.33291667 Z M13.5,24.1595833 C11.1291667,24.1595833 8.925,23.4475 7.08333333,22.2291667 C7.60833333,21.8904167 8.3125,21.6666667 9.1875,21.6666667 L10.3625,21.6666667 C10.5,21.6666667 10.625,21.6820833 10.7041667,21.5729167 L12.0083333,19.8475 C12.4791667,20.0920833 12.9791667,20.2383333 13.4958333,20.2383333 C14.025,20.2383333 14.5375,20.085 15.0166667,19.82875 L16.3541667,21.5879167 C16.4333333,21.6941667 16.5583333,21.6666667 16.6916667,21.6666667 L17.8625,21.6666667 C18.725,21.6666667 19.4166667,21.8825 19.9333333,22.21875 C18.0875,23.4441667 15.875,24.1595833 13.5,24.1595833 L13.5,24.1595833 Z M13.5,0 C6.60833333,0 1,5.6075 1,12.5 C1,19.3925 6.60833333,25 13.5,25 C16.1833333,25 18.6708333,24.1470833 20.7083333,22.7025 C20.775,22.675 20.8375,22.6258333 20.8916667,22.5733333 C23.9875,20.2958333 26,16.6291667 26,12.5 C26,5.6075 20.3916667,0 13.5,0 L13.5,0 Z" id="Fill-49" fill="#0A0B09" sketch:type="MSShapeGroup"></path>
                    <text sketch:type="MSTextLayer" font-family="SFNS Display" font-size="10" font-weight="normal" sketch:alignment="middle" letter-spacing="0.119999997" fill="#929292">
                        <tspan x="0.630292978" y="36.5">Profile</tspan>
                    </text>
                </g>
                <g id="Home" transform="translate(26.000000, 8.000000)" fill="#F2742B">
                    <text sketch:type="MSTextLayer" font-family="SFNS Display" font-size="10" font-weight="normal" sketch:alignment="middle" letter-spacing="0.119999997">
                        <tspan x="0.720449224" y="33">Home</tspan>
                    </text>
                    <path d="M22.3320178,9.53333333 C22.1282675,9.53333333 22.1132697,9.69833333 22.1132697,9.9 L22.1132697,21.2666667 L15.8946768,21.2666667 L15.8946768,15.0333333 C15.8946768,14.8316667 15.8972374,14.6666667 15.693487,14.6666667 L11.2676779,14.6666667 C11.0635618,14.6666667 10.7734827,14.8316667 10.7734827,15.0333333 L10.7734827,21.2666667 L4.92068941,21.2666667 L4.92068941,9.9 C4.92068941,9.69833333 4.83253171,9.53333333 4.62878135,9.53333333 L3.34848282,9.53333333 L13.079849,1.02666667 L16.1602473,3.44666667 C16.2710846,3.531 16.3793613,3.54566667 16.5055621,3.487 C16.6324946,3.42466667 16.626276,3.29633333 16.626276,3.157 L16.626276,0.733333333 L19.9184722,0.733333333 L19.9184722,6.325 C19.9184722,6.42033333 19.871284,6.512 19.9374938,6.578 L22.7098888,9.53333333 L22.3320178,9.53333333 L22.3320178,9.53333333 Z M23.923246,9.647 L20.6500714,6.17833333 L20.6500714,0.366666667 C20.6500714,0.165 20.3230465,0 20.1192962,0 L16.430939,0 C16.2271886,0 15.8946768,0.165 15.8946768,0.366666667 L15.8946768,2.40166667 L13.2320217,0.260333333 C13.092652,0.154 12.977791,0.157666667 12.8450057,0.275 L2.12561482,9.625 C2.01002215,9.724 1.9694184,9.88533333 2.02392254,10.0283333 C2.07806088,10.1713333 2.21523572,10.2666667 2.36887154,10.2666667 L4.18909025,10.2666667 L4.18909025,21.6333333 C4.18909025,21.835 4.42466518,22 4.62878135,22 L11.2676779,22 C11.4710625,22 11.5050819,21.835 11.5050819,21.6333333 L11.5050819,15.4 L15.1630777,15.4 L15.1630777,21.6333333 C15.1630777,21.835 15.4897367,22 15.693487,22 L22.3320178,22 C22.536134,22 22.8448688,21.835 22.8448688,21.6333333 L22.8448688,10.2666667 L23.576468,10.2666667 C23.724251,10.2666667 23.89764,10.1786667 23.9558022,10.043 C24.0139643,9.90733333 24.0256699,9.74966667 23.923246,9.647 L23.923246,9.647 Z" id="Fill-94" sketch:type="MSShapeGroup"></path>
                </g>
                <g id="My-Events" transform="translate(115.000000, 7.000000)">
                    <path d="M32.9382675,1.50063329 L30.329093,1.50063329 L30.329093,0.413018338 C30.329093,0.185032215 30.1440608,0 29.9160747,0 C29.6880886,0 29.5030563,0.185032215 29.5030563,0.413018338 L29.5030563,1.50063329 L24.413569,1.50063329 L24.413569,0.413018338 C24.413569,0.185032215 24.2285368,0 24.0005507,0 C23.7725646,0 23.5875324,0.185032215 23.5875324,0.413018338 L23.5875324,1.50063329 L18.496393,1.50063329 L18.496393,0.413018338 C18.496393,0.185032215 18.3119114,0 18.0839253,0 C17.8559392,0 17.670907,0.185032215 17.670907,0.413018338 L17.670907,1.50063329 L15.0600804,1.50063329 C14.4757971,1.50063329 14,1.97698111 14,2.56181508 L14,22.440663 C14.0170714,23.018338 14.4829561,23.4704554 15.0600804,23.4704554 L32.9382675,23.4704554 C33.5071314,23.4704554 33.9829286,23.0078749 33.9988986,22.4279971 L34,2.56181508 C34,1.97698111 33.5236522,1.50063329 32.9382675,1.50063329 L32.9382675,1.50063329 Z M29.9160747,4.41984691 C30.0030839,4.41984691 30.0807313,4.38625475 30.1473649,4.339446 C30.0878903,4.39836995 30.0074894,4.43581695 29.9182774,4.43581695 C29.8588028,4.43581695 29.8059365,4.41544138 29.7580263,4.38790682 C29.8075885,4.4077317 29.8599042,4.41984691 29.9160747,4.41984691 L29.9160747,4.41984691 Z M24.0005507,4.41984691 C24.0572719,4.41984691 24.1112396,4.40828239 24.1613525,4.38735613 C24.1128917,4.41544138 24.060576,4.43581695 24.0016521,4.43581695 C23.9410761,4.43581695 23.8887604,4.41544138 23.8402996,4.38735613 C23.8904125,4.40828239 23.9432788,4.41984691 24.0005507,4.41984691 L24.0005507,4.41984691 Z M18.0839253,4.41984691 C18.1406465,4.41984691 18.1951649,4.40828239 18.2441764,4.38735613 C18.196817,4.41544138 18.1439507,4.43581695 18.0850267,4.43581695 C18.0255521,4.43581695 17.9726857,4.41544138 17.9247756,4.38790682 C17.9737871,4.40828239 18.0266535,4.41984691 18.0839253,4.41984691 L18.0839253,4.41984691 Z M33.1728619,22.4164326 C33.1695578,22.5425409 33.0643758,22.6444187 32.9382675,22.6444187 L15.0600804,22.6444187 C14.9350735,22.6444187 14.8287901,22.5419902 14.8260367,22.4279971 L14.8260367,2.56181508 C14.8260367,2.43240267 14.9312187,2.32666997 15.0600804,2.32666997 L17.670907,2.32666997 L17.670907,3.03981497 C17.2391652,3.20612369 16.9329809,3.62189548 16.9329809,4.1103585 C16.9329809,4.74530536 17.4489785,5.26185363 18.0850267,5.26185363 C18.7183215,5.26185363 19.2343191,4.74530536 19.2343191,4.1103585 C19.2343191,3.62134479 18.9270334,3.2050223 18.496393,3.03926428 L18.496393,2.32666997 L23.5875324,2.32666997 L23.5875324,3.03926428 C23.1563412,3.20557299 22.8485049,3.62134479 22.8485049,4.1103585 C22.8485049,4.74530536 23.3656038,5.26185363 24.0016521,5.26185363 C24.6349469,5.26185363 25.1514951,4.74530536 25.1514951,4.1103585 C25.1514951,3.62134479 24.8436588,3.2050223 24.413569,3.03926428 L24.413569,2.32666997 L29.5030563,2.32666997 L29.5030563,3.03981497 C29.0729666,3.20667438 28.7662316,3.62189548 28.7662316,4.1103585 C28.7662316,4.74530536 29.2827799,5.26185363 29.9182774,5.26185363 C30.5515722,5.26185363 31.0675698,4.74530536 31.0675698,4.1103585 C31.0675698,3.6207941 30.7591828,3.20447161 30.329093,3.03871359 L30.329093,2.32666997 L32.9382675,2.32666997 C33.0687813,2.32666997 33.1739633,2.43240267 33.1739633,2.56181508 L33.1728619,22.4164326 L33.1728619,22.4164326 Z M30.5928741,6.77184867 L17.4049232,6.77184867 C16.8200892,6.77184867 16.3442921,7.24819649 16.3442921,7.83413184 L16.3442921,19.8320392 C16.3646677,20.4091635 16.829451,20.8607302 17.4049232,20.8607302 L30.5928741,20.8607302 C31.170549,20.8607302 31.635883,20.4086128 31.6540558,19.8182719 L31.6540558,7.83413184 C31.6540558,7.24819649 31.177708,6.77184867 30.5928741,6.77184867 L30.5928741,6.77184867 Z M30.8280192,19.805606 C30.8236136,19.932265 30.7189823,20.0346935 30.5928741,20.0346935 L17.4049232,20.0346935 C17.2777135,20.0346935 17.1741836,19.9333664 17.1703288,19.8182719 L17.1703288,7.83413184 C17.1703288,7.70361804 17.2755108,7.59788535 17.4049232,7.59788535 L30.5928741,7.59788535 C30.7228372,7.59788535 30.8280192,7.70361804 30.8280192,7.83413184 L30.8280192,19.805606 L30.8280192,19.805606 Z M26.4076216,14.0492318 C26.2881216,13.9044 26.148246,13.7771904 25.9901977,13.6681535 C26.0926262,13.5883033 26.1862437,13.4985407 26.2721516,13.3994163 C26.4307506,13.2138334 26.5535547,12.9990638 26.6394625,12.7584118 C26.7204141,12.5249188 26.7622666,12.2721516 26.7622666,12.0078198 C26.7622666,11.6124236 26.6763588,11.2616333 26.5061953,10.9637095 C26.3409879,10.6773501 26.1223636,10.4394515 25.8580318,10.2577234 C25.6019605,10.082053 25.3073407,9.95098849 24.982433,9.86893551 C24.2803018,9.69106228 23.4939149,9.7086844 22.8826477,9.962553 C22.5428713,10.1040806 22.2471502,10.3034308 22.0053968,10.5539953 C21.7586872,10.8089653 21.5686987,11.1168016 21.4420398,11.4681425 C21.3170329,11.8106724 21.2531527,12.1917506 21.2531527,12.6009141 C21.2531527,12.8289003 21.4381849,13.0139325 21.666171,13.0139325 L22.0687263,13.0139325 C22.2890027,13.0139325 22.4707308,12.8404648 22.4806432,12.6196376 C22.4933091,12.3558566 22.536263,12.1113497 22.6073022,11.8965802 C22.6766892,11.688419 22.7703067,11.5182554 22.8942122,11.3767278 C23.0137122,11.239055 23.1612974,11.1322209 23.347431,11.050168 C23.6668319,10.9086403 24.1090368,10.878903 24.586486,11.0028085 C24.7726196,11.0512693 24.9438846,11.125062 25.0925712,11.2203315 C25.2285919,11.3084421 25.3359767,11.4180296 25.4185803,11.5551517 C25.4967785,11.6818107 25.5342255,11.8299466 25.5342255,12.0078198 C25.5342255,12.2396608 25.4874167,12.4257944 25.3954513,12.5629165 C25.2974283,12.709951 25.1718707,12.8233934 25.0105182,12.9093012 C24.8348477,13.002368 24.6327441,13.0662481 24.4091635,13.0981882 C24.165758,13.1328818 23.9195991,13.1444463 23.6778457,13.1317804 C23.564954,13.1279255 23.4548158,13.1670246 23.3722121,13.2452228 C23.2907098,13.3228702 23.2444518,13.4313564 23.2444518,13.544248 L23.2444518,13.8944876 C23.2444518,14.0090313 23.2918112,14.1186189 23.3755163,14.1962663 C23.4592213,14.2744645 23.5781706,14.3168677 23.6850047,14.3064045 C23.9597995,14.287681 24.2285368,14.2970428 24.4939699,14.3355912 C24.7406796,14.3708354 24.9532463,14.4385704 25.1459882,14.5437524 C25.3144997,14.6351671 25.4472163,14.7629275 25.5512969,14.931439 C25.652624,15.0960956 25.7038383,15.3141693 25.7038383,15.5796024 C25.7038383,15.803183 25.6614351,15.9948235 25.5738752,16.1644364 C25.4857646,16.3357013 25.367366,16.4805331 25.2203315,16.5950768 C25.0650366,16.7162289 24.8888155,16.8059915 24.6790021,16.8698717 C24.2059585,17.0158048 23.6508618,16.9921251 23.2527122,16.8406851 C23.0428988,16.7619362 22.8644749,16.6484939 22.7223966,16.5025607 C22.580869,16.359381 22.4762377,16.1848119 22.4002423,15.9656369 C22.3225949,15.7475632 22.2890027,15.4909411 22.3011179,15.2040311 C22.3066248,15.0916901 22.2642216,14.9826532 22.1871248,14.9017016 C22.1089267,14.8201994 22.0015419,14.774492 21.8892009,14.774492 L21.4855444,14.774492 C21.2663693,14.774492 21.0857426,14.9457569 21.072526,15.1643813 C21.0477449,15.6220056 21.0995099,16.0405309 21.2267195,16.4105953 C21.3572333,16.7828625 21.5587863,17.1039154 21.8275235,17.3643923 C22.0935074,17.6210144 22.4189658,17.8187125 22.7956385,17.951429 C23.1607467,18.0786387 23.5710116,18.1436202 24.0176221,18.1436202 C24.3931935,18.1436202 24.7566496,18.0935074 25.0975274,17.994383 C25.4527232,17.8914037 25.7688199,17.7311526 26.0331516,17.5191365 C26.3073958,17.3005121 26.5271215,17.0268187 26.6862713,16.7074178 C26.8487252,16.3836114 26.9307781,16.0041853 26.9307781,15.5796024 C26.9307781,15.2866347 26.8861721,15.007985 26.7975109,14.7508123 C26.7088496,14.4919874 26.5772344,14.2562916 26.4076216,14.0492318 L26.4076216,14.0492318 Z" id="Fill-149" fill="#5B5B58" sketch:type="MSShapeGroup"></path>
                    <text sketch:type="MSTextLayer" font-family="SFNS Display" font-size="10" font-weight="normal" sketch:alignment="middle" letter-spacing="0.119999997" fill="#929292">
                        <tspan x="0.55277345" y="35.5">My Events</tspan>
                    </text>
                </g>
                <g id="Search" transform="translate(314.000000, 8.000000)">
                    <text sketch:type="MSTextLayer" font-family="SFNS Display" font-size="10" font-weight="normal" fill="#9B9B9B">
                        <tspan x="0" y="33">Search</tspan>
                    </text>
                    <path d="M16.9844724,13.5792109 C18.3296381,12.1351617 19.1605212,10.2056442 19.1605212,8.08152759 C19.1605212,3.62531006 15.5353176,0 11.079231,0 C6.62417397,0 3,3.62531006 3,8.08152759 C3,12.5367155 6.62417397,16.1625404 11.079231,16.1625404 C13.1332728,16.1625404 15.0050763,15.3856882 16.4320948,14.1187345 C16.4320948,14.1187345 19.7298191,17.4165557 21.3786813,19.0654663 C22.3192502,20.0060629 24.2003881,21.887256 24.2003881,21.887256 C24.2755485,21.9624187 24.3743896,22 24.4732308,22 C24.5720719,22 24.670913,21.9624187 24.7460734,21.887256 C24.896909,21.736416 24.896909,21.49188 24.7460734,21.3410399 L16.9844724,13.5792109 Z M11.079231,15.3903215 C7.05042625,15.3903215 3.77219616,12.1109655 3.77219616,8.08152759 C3.77219616,4.05106005 7.05042625,0.772218842 11.079231,0.772218842 C15.1090653,0.772218842 18.388325,4.05106005 18.388325,8.08152759 C18.388325,12.1109655 15.1090653,15.3903215 11.079231,15.3903215 L11.079231,15.3903215 Z" id="Fill-139" fill="#5B5B58" filter="url(#filter-3)" sketch:type="MSShapeGroup"></path>
                </g>
            </g>
            <text id="Norris-Center,-Louis" sketch:type="MSTextLayer" font-family="SFNS Display" font-size="17" font-weight="normal" line-spacing="18" letter-spacing="0.329374999" fill="#555555">
                <tspan x="53" y="260">Norris Center, Louis Room</tspan>
            </text>
        </g>
    </g>
</svg>